<svg width="64" height="64" viewBox="0 0 64 64" fill="none" xmlns="http://www.w3.org/2000/svg">
<rect width="64" height="64" rx="7" fill="#FF00A1"/>
<path d="M23.7033 47.8332H40.2966C44.6666 47.8332 46.4083 45.1573 46.6141 41.8957L47.4374 28.8173C47.6591 25.3973 44.9358 22.4998 41.4999 22.4998C40.5341 22.4998 39.6474 21.9457 39.2041 21.0907L38.0641 18.7948C37.3358 17.354 35.4358 16.1665 33.8208 16.1665H30.1949C28.5641 16.1665 26.6641 17.354 25.9358 18.7948L24.7958 21.0907C24.3524 21.9457 23.4658 22.4998 22.4999 22.4998C19.0641 22.4998 16.3408 25.3973 16.5624 28.8173L17.3858 41.8957C17.5758 45.1573 19.3333 47.8332 23.7033 47.8332Z" stroke="white" stroke-width="1.5" stroke-linecap="round" stroke-linejoin="round"/>
<path d="M29.625 25.6665H34.375" stroke="white" stroke-width="1.5" stroke-linecap="round" stroke-linejoin="round"/>
<path d="M32.0003 41.5002C34.8345 41.5002 37.1462 39.1885 37.1462 36.3543C37.1462 33.5202 34.8345 31.2085 32.0003 31.2085C29.1662 31.2085 26.8545 33.5202 26.8545 36.3543C26.8545 39.1885 29.1662 41.5002 32.0003 41.5002Z" stroke="white" stroke-width="1.5" stroke-linecap="round" stroke-linejoin="round"/>
</svg>
