<?xml version="1.0" encoding="UTF-8" standalone="no"?>
<svg
   width="18"
   height="30"
   viewBox="0 0 18 30"
   fill="none"
   version="1.1"
   id="svg1"
   sodipodi:docname="info_blue.svg"
   inkscape:version="1.3.2 (091e20ef0f, 2023-11-25)"
   xmlns:inkscape="http://www.inkscape.org/namespaces/inkscape"
   xmlns:sodipodi="http://sodipodi.sourceforge.net/DTD/sodipodi-0.dtd"
   xmlns="http://www.w3.org/2000/svg"
   xmlns:svg="http://www.w3.org/2000/svg">
  <sodipodi:namedview
     id="namedview1"
     pagecolor="#ffffff"
     bordercolor="#000000"
     borderopacity="0.25"
     inkscape:showpageshadow="2"
     inkscape:pageopacity="0.0"
     inkscape:pagecheckerboard="0"
     inkscape:deskcolor="#d1d1d1"
     inkscape:zoom="31.833333"
     inkscape:cx="9"
     inkscape:cy="17.167539"
     inkscape:window-width="2560"
     inkscape:window-height="1371"
     inkscape:window-x="0"
     inkscape:window-y="32"
     inkscape:window-maximized="1"
     inkscape:current-layer="svg1" />
  <g
     clip-path="url(#clip0_128_108)"
     id="g1">
    <path
       d="M9.38389 0C12.2566 0 14.4107 0.526685 15.846 1.58006C17.2813 2.63343 18 4.28301 18 6.5309C18 7.79494 17.7441 8.88413 17.2322 9.79635C16.7204 10.7086 16.087 11.5449 15.3341 12.3034C14.5791 13.0618 13.8263 13.8413 13.0735 14.6419C12.3206 15.4424 11.6723 16.3546 11.1327 17.3806C10.591 18.4066 10.2945 19.6496 10.237 21.1096H7.12322C7.0955 19.5653 7.30877 18.2296 7.76303 17.1067C8.2173 15.9838 8.79313 15 9.49052 14.1573C10.1879 13.3146 10.8917 12.5351 11.6019 11.8188C12.3121 11.1025 12.9092 10.3799 13.3934 9.64888C13.8775 8.91784 14.1334 8.08989 14.1611 7.16292C14.2187 5.75772 13.7986 4.7191 12.9028 4.04494C12.0071 3.37079 10.5782 3.03371 8.61611 3.03371C7.22346 3.03371 6.0782 3.04846 5.18246 3.07584C4.28673 3.10323 3.4763 3.15379 2.75118 3.22331C2.02607 3.29284 1.17938 3.37079 0.21327 3.45506L0 0.884831C0.740047 0.74368 1.40758 0.625702 2.00474 0.526685C2.6019 0.427669 3.22678 0.337079 3.88152 0.252809C4.53626 0.168539 5.2955 0.105337 6.16351 0.0632023C7.03152 0.0210674 8.10427 0 9.38389 0ZM9.17062 25.0281C9.65474 25.0281 9.99597 25.1271 10.1943 25.323C10.3927 25.519 10.4929 25.8708 10.4929 26.3764V28.6517C10.4929 29.1573 10.3927 29.5091 10.1943 29.7051C9.99597 29.901 9.65474 30 9.17062 30H8.18957C7.70545 30 7.36422 29.901 7.16588 29.7051C6.96754 29.5091 6.8673 29.1573 6.8673 28.6517V26.3764C6.8673 25.8708 6.96754 25.519 7.16588 25.323C7.36422 25.1271 7.70545 25.0281 8.18957 25.0281H9.17062Z"
       fill="white"
       id="path1"
       style="fill:#287185;fill-opacity:1" />
  </g>
  <defs
     id="defs1">
    <clipPath
       id="clip0_128_108">
      <rect
         width="18"
         height="30"
         fill="white"
         id="rect1" />
    </clipPath>
  </defs>
</svg>
