<?xml version="1.0" encoding="UTF-8" standalone="no"?>
<svg
   id="Layer_1"
   data-name="Layer 1"
   viewBox="0 0 20 20"
   version="1.1"
   sodipodi:docname="Language-DE.svg"
   inkscape:version="1.3.2 (091e20ef0f, 2023-11-25)"
   xmlns:inkscape="http://www.inkscape.org/namespaces/inkscape"
   xmlns:sodipodi="http://sodipodi.sourceforge.net/DTD/sodipodi-0.dtd"
   xmlns="http://www.w3.org/2000/svg"
   xmlns:svg="http://www.w3.org/2000/svg">
  <sodipodi:namedview
     id="namedview3"
     pagecolor="#ffffff"
     bordercolor="#000000"
     borderopacity="0.25"
     inkscape:showpageshadow="2"
     inkscape:pageopacity="0.0"
     inkscape:pagecheckerboard="0"
     inkscape:deskcolor="#d1d1d1"
     inkscape:zoom="28.65"
     inkscape:cx="10"
     inkscape:cy="10"
     inkscape:window-width="2560"
     inkscape:window-height="1371"
     inkscape:window-x="0"
     inkscape:window-y="32"
     inkscape:window-maximized="1"
     inkscape:current-layer="Layer_1" />
  <defs
     id="defs1">
    <style
       id="style1">
      .cls-1 {
        stroke-width: 0px;
      }

      .cls-2 {
        fill: none;
        stroke: #000;
        stroke-linecap: round;
        stroke-linejoin: round;
        stroke-width: 2px;
      }
    </style>
  </defs>
  <path
     class="cls-2"
     d="M19,13c0,1.1-.9,2-2,2H5l-4,4V3c0-1.1.9-2,2-2h14c1.1,0,2,.9,2,2v10Z"
     id="path1"
     style="stroke:#ffffff;stroke-opacity:1" />
  <g
     id="g3"
     style="fill:#ffffff;fill-opacity:1">
    <path
       class="cls-1"
       d="M3.86,3.63h2.24c.58,0,1.08.05,1.5.16.42.11.8.31,1.14.62.88.77,1.33,1.93,1.33,3.49,0,.52-.04.99-.13,1.41s-.23.81-.41,1.15-.42.65-.71.92c-.23.21-.48.37-.75.5s-.56.21-.87.26-.66.08-1.05.08h-2.24c-.31,0-.55-.05-.71-.14-.16-.1-.26-.23-.31-.4s-.07-.4-.07-.68v-6.3c0-.38.08-.65.25-.81s.43-.25.81-.25ZM4.52,5.01v5.83h1.3c.29,0,.51,0,.67-.02s.33-.05.5-.12.32-.15.45-.26c.58-.49.86-1.34.86-2.54,0-.85-.13-1.48-.38-1.9s-.56-.69-.94-.81c-.37-.12-.82-.17-1.34-.17h-1.14Z"
       id="path2"
       style="fill:#ffffff;fill-opacity:1" />
    <path
       class="cls-1"
       d="M16.58,4.97h-3.88v2.11h3.57c.26,0,.46.06.59.18.13.12.19.28.19.47s-.06.35-.19.48c-.13.12-.32.18-.59.18h-3.57v2.44h4.01c.27,0,.47.06.61.19.14.13.21.3.21.51s-.07.37-.21.5c-.14.13-.34.19-.61.19h-4.68c-.38,0-.64-.08-.81-.25-.16-.17-.25-.44-.25-.81v-6.46c0-.25.04-.45.11-.61s.19-.27.34-.35c.16-.07.36-.11.6-.11h4.54c.27,0,.48.06.61.18.13.12.2.28.2.48s-.07.37-.2.49c-.13.12-.34.18-.61.18Z"
       id="path3"
       style="fill:#ffffff;fill-opacity:1" />
  </g>
</svg>
