<?xml version="1.0" encoding="UTF-8"?>
<svg id="Layer_1" data-name="Layer 1" xmlns="http://www.w3.org/2000/svg" viewBox="0 0 20 20">
  <defs>
    <style>
      .cls-1 {
        stroke-width: 0px;
      }

      .cls-2 {
        fill: none;
        stroke: #000;
        stroke-linecap: round;
        stroke-linejoin: round;
        stroke-width: 2px;
      }
    </style>
  </defs>
  <path class="cls-2" d="M19,13c0,1.1-.9,2-2,2H5l-4,4V3c0-1.1.9-2,2-2h14c1.1,0,2,.9,2,2v10Z"/>
  <g>
    <path class="cls-1" d="M8.32,4.99h-3.88v2.11h3.57c.26,0,.46.06.59.18s.19.28.19.47-.06.35-.19.48-.32.18-.59.18h-3.57v2.44h4.01c.27,0,.47.06.61.19.14.13.21.3.21.51s-.07.37-.21.5c-.14.13-.34.19-.61.19H3.78c-.38,0-.64-.08-.81-.25s-.25-.44-.25-.81v-6.46c0-.25.04-.45.11-.61s.19-.27.34-.35c.16-.07.36-.11.6-.11h4.54c.27,0,.48.06.61.18s.2.28.2.48-.07.37-.2.49-.34.18-.61.18Z"/>
    <path class="cls-1" d="M12.29,4.55l3.31,5.06v-5.11c0-.33.07-.58.21-.75.14-.17.33-.25.57-.25s.44.08.58.25c.14.17.21.42.21.75v6.76c0,.75-.31,1.13-.93,1.13-.15,0-.29-.02-.42-.07-.12-.04-.24-.12-.35-.21s-.21-.21-.3-.34-.19-.26-.28-.4l-3.23-5v5.03c0,.33-.07.58-.22.74-.15.17-.34.25-.58.25s-.44-.08-.59-.25-.22-.42-.22-.74v-6.63c0-.28.03-.5.09-.66.07-.18.2-.32.37-.43s.35-.17.55-.17c.15,0,.29.03.4.08.11.05.21.12.29.21.08.09.17.2.26.33s.18.28.27.43Z"/>
  </g>
</svg>