<?xml version="1.0" encoding="UTF-8" standalone="no"?>
<svg
   id="Layer_1"
   data-name="Layer 1"
   viewBox="0 0 14.89 16.19"
   version="1.1"
   sodipodi:docname="prev.svg"
   inkscape:version="1.3.2 (091e20ef0f, 2023-11-25)"
   xmlns:inkscape="http://www.inkscape.org/namespaces/inkscape"
   xmlns:sodipodi="http://sodipodi.sourceforge.net/DTD/sodipodi-0.dtd"
   xmlns="http://www.w3.org/2000/svg"
   xmlns:svg="http://www.w3.org/2000/svg">
  <sodipodi:namedview
     id="namedview1"
     pagecolor="#ffffff"
     bordercolor="#000000"
     borderopacity="0.25"
     inkscape:showpageshadow="2"
     inkscape:pageopacity="0.0"
     inkscape:pagecheckerboard="0"
     inkscape:deskcolor="#d1d1d1"
     inkscape:zoom="38.482202"
     inkscape:cx="7.4450002"
     inkscape:cy="8.0946511"
     inkscape:window-width="2560"
     inkscape:window-height="1371"
     inkscape:window-x="0"
     inkscape:window-y="32"
     inkscape:window-maximized="1"
     inkscape:current-layer="Layer_1" />
  <defs
     id="defs1">
    <style
       id="style1">
      .cls-1 {
        fill: #171717;
        stroke-width: 0px;
      }
    </style>
  </defs>
  <path
     class="cls-1"
     d="m 11.614524,0 c 0.57,0 1.13,0.15 1.65,0.45 1.04,0.6 1.65,1.66 1.65,2.86 v 9.57 c 0,1.19 -0.62,2.26 -1.65,2.86 -1.04,0.6 -2.27,0.6 -3.3,0 L 1.6745237,10.96 C 0.64452369,10.36 0.02452369,9.29 0.02452369,8.1 c 0,-1.19 0.62,-2.26 1.65000001,-2.86 L 9.964524,0.46 c 0.52,-0.31 1.08,-0.46 1.65,-0.46 z m 0,14.68 c 0.31,0 0.62,-0.08 0.9,-0.24 0.56,-0.33 0.9,-0.91 0.9,-1.56 V 3.31 c 0,-0.65 -0.34,-1.23 -0.9,-1.56 -0.56,-0.32 -1.24,-0.33 -1.8,0 L 2.4245237,6.53 c -0.56,0.33 -0.9,0.91 -0.9,1.56 0,0.65 0.34,1.23 0.9,1.56 l 8.2900003,4.78 c 0.28,0.16 0.59,0.25 0.9,0.25 z"
     id="path1"
     style="fill:#ffffff;fill-opacity:1" />
</svg>
