<svg width="38" height="38" viewBox="0 0 38 38" fill="none" xmlns="http://www.w3.org/2000/svg">
<path d="M33.2498 10.6558C33.2181 10.6558 33.1706 10.6558 33.1231 10.6558C24.7473 9.81659 16.3873 9.49992 8.10647 10.3391L4.87647 10.6558C4.21147 10.7191 3.62564 10.2441 3.56231 9.57909C3.49897 8.91409 3.97397 8.34409 4.62314 8.28075L7.85314 7.96409C16.2765 7.10909 24.8106 7.44159 33.3606 8.28075C34.0098 8.34409 34.4848 8.92992 34.4215 9.57909C34.374 10.1966 33.8515 10.6558 33.2498 10.6558Z" fill="white"/>
<path d="M13.4582 9.0565C13.3949 9.0565 13.3315 9.0565 13.2524 9.04067C12.619 8.92984 12.1757 8.31234 12.2865 7.679L12.6349 5.60484C12.8882 4.08484 13.2365 1.979 16.9257 1.979H21.074C24.779 1.979 25.1274 4.164 25.3649 5.62067L25.7132 7.679C25.824 8.32817 25.3807 8.94567 24.7474 9.04067C24.0982 9.1515 23.4807 8.70817 23.3857 8.07484L23.0374 6.0165C22.8157 4.639 22.7682 4.36984 21.0899 4.36984H16.9415C15.2632 4.36984 15.2315 4.5915 14.994 6.00067L14.6299 8.059C14.5349 8.64484 14.0282 9.0565 13.4582 9.0565Z" fill="white"/>
<path d="M24.0828 36.0208H13.9178C8.39195 36.0208 8.17029 32.965 7.99612 30.495L6.96695 14.5508C6.91945 13.9017 7.42612 13.3317 8.07529 13.2842C8.74029 13.2525 9.29445 13.7433 9.34195 14.3925L10.3711 30.3367C10.5453 32.7433 10.6086 33.6458 13.9178 33.6458H24.0828C27.4078 33.6458 27.4711 32.7433 27.6295 30.3367L28.6586 14.3925C28.7061 13.7433 29.2761 13.2525 29.9253 13.2842C30.5745 13.3317 31.0811 13.8858 31.0336 14.5508L30.0045 30.495C29.8303 32.965 29.6086 36.0208 24.0828 36.0208Z" fill="white"/>
<path d="M21.628 27.3125H16.3555C15.7063 27.3125 15.168 26.7742 15.168 26.125C15.168 25.4758 15.7063 24.9375 16.3555 24.9375H21.628C22.2771 24.9375 22.8155 25.4758 22.8155 26.125C22.8155 26.7742 22.2771 27.3125 21.628 27.3125Z" fill="white"/>
<path d="M22.9587 20.979H15.042C14.3928 20.979 13.8545 20.4407 13.8545 19.7915C13.8545 19.1423 14.3928 18.604 15.042 18.604H22.9587C23.6078 18.604 24.1462 19.1423 24.1462 19.7915C24.1462 20.4407 23.6078 20.979 22.9587 20.979Z" fill="white"/>
</svg>
