<svg width="64" height="64" viewBox="0 0 64 64" fill="none" xmlns="http://www.w3.org/2000/svg">
<rect width="64" height="64" rx="14" fill="#CD4886"/>
<path d="M46.2498 23.6558C46.2181 23.6558 46.1706 23.6558 46.1231 23.6558C37.7473 22.8166 29.3873 22.4999 21.1065 23.3391L17.8765 23.6558C17.2115 23.7191 16.6256 23.2441 16.5623 22.5791C16.499 21.9141 16.974 21.3441 17.6231 21.2808L20.8531 20.9641C29.2765 20.1091 37.8106 20.4416 46.3606 21.2808C47.0098 21.3441 47.4848 21.9299 47.4215 22.5791C47.374 23.1966 46.8515 23.6558 46.2498 23.6558Z" fill="white"/>
<path d="M26.4582 22.0565C26.3949 22.0565 26.3315 22.0565 26.2524 22.0407C25.619 21.9298 25.1757 21.3123 25.2865 20.679L25.6349 18.6048C25.8882 17.0848 26.2365 14.979 29.9257 14.979H34.074C37.779 14.979 38.1274 17.164 38.3649 18.6207L38.7132 20.679C38.824 21.3282 38.3807 21.9457 37.7474 22.0407C37.0982 22.1515 36.4807 21.7082 36.3857 21.0748L36.0374 19.0165C35.8157 17.639 35.7682 17.3698 34.0899 17.3698H29.9415C28.2632 17.3698 28.2315 17.5915 27.994 19.0007L27.6299 21.059C27.5349 21.6448 27.0282 22.0565 26.4582 22.0565Z" fill="white"/>
<path d="M37.0828 49.0208H26.9178C21.392 49.0208 21.1703 45.965 20.9961 43.495L19.967 27.5508C19.9195 26.9017 20.4261 26.3317 21.0753 26.2842C21.7403 26.2525 22.2945 26.7433 22.342 27.3925L23.3711 43.3367C23.5453 45.7433 23.6086 46.6458 26.9178 46.6458H37.0828C40.4078 46.6458 40.4711 45.7433 40.6295 43.3367L41.6586 27.3925C41.7061 26.7433 42.2761 26.2525 42.9253 26.2842C43.5745 26.3317 44.0811 26.8858 44.0336 27.5508L43.0045 43.495C42.8303 45.965 42.6086 49.0208 37.0828 49.0208Z" fill="white"/>
<path d="M34.628 40.3125H29.3555C28.7063 40.3125 28.168 39.7742 28.168 39.125C28.168 38.4758 28.7063 37.9375 29.3555 37.9375H34.628C35.2771 37.9375 35.8155 38.4758 35.8155 39.125C35.8155 39.7742 35.2771 40.3125 34.628 40.3125Z" fill="white"/>
<path d="M35.9587 33.979H28.042C27.3928 33.979 26.8545 33.4407 26.8545 32.7915C26.8545 32.1423 27.3928 31.604 28.042 31.604H35.9587C36.6078 31.604 37.1462 32.1423 37.1462 32.7915C37.1462 33.4407 36.6078 33.979 35.9587 33.979Z" fill="white"/>
</svg>
